<svg xmlns="http://www.w3.org/2000/svg" viewBox="0 0 300 80"><defs><style>.cls-1{fill:#4061b2;}.cls-2{fill:#cfcfd1;}</style></defs><g id="final"><path class="cls-1" d="M21.9,35.3,26.18,31V24.94L21.9,20.65H15.83l-4.29,4.29V31l4.29,4.29Zm-3-12.49L24,28l-5.16,5.16L13.7,28Z"/><path class="cls-2" d="M62,38H56l-4.29,4.29v6.06L56,52.66H62l4.29-4.29V42.31ZM59,50.5l-5.16-5.16L59,40.18l5.16,5.16Z"/><path class="cls-1" d="M54.36,35.18h5.9l4.29-4.29V24.83l-4.29-4.29h-6l-7.09-7.11v-6L42.84,3.17H36.78L32.49,7.46v6.07l4.29,4.29h5.93L49.91,25v5.79l-7.1,7.07h-6l-4.29,4.29v6.07l4.29,4.29h6.06l4.29-4.29V42.39Zm8-7.32L57.23,33l-5.16-5.16,5.16-5.16ZM34.65,10.5l5.16-5.17L45,10.5l-5.16,5.16Zm5.16,39.89-5.16-5.16,5.16-5.16L45,45.23Z"/><path class="cls-2" d="M35.14,55.38,28,48.16V42.37l7.1-7.07h6L45.37,31V24.94l-4.29-4.29H35l-4.29,4.29v5.87L23.5,38H17.59L13.3,42.31v6.06l4.29,4.29h6.05l7.08,7.11v6L35,70h6.07l4.29-4.29V59.67l-4.29-4.29Zm2.91-32.57L43.21,28l-5.16,5.16L32.88,28ZM15.46,45.34l5.17-5.16,5.16,5.16L20.63,50.5ZM38.05,67.87,32.88,62.7l5.17-5.16,5.16,5.16Z"/><path class="cls-1" d="M89.35,51.57a2.55,2.55,0,0,1-1.25-2.44,6.52,6.52,0,0,1,.55-2.45,5.22,5.22,0,0,0,1.42,1.18,3,3,0,0,0,1.42.34,3.36,3.36,0,0,0,3.15-2.37,13,13,0,0,0,1-5.25q0-5.38-4-5.38a12,12,0,0,0-2,.13L86.23,51.55H80.14L85.9,24.61l6.26-.85-2,9.41h.26a4.94,4.94,0,0,0,3-1,7.75,7.75,0,0,0,2.25-2.63,6.79,6.79,0,0,0,.85-3.2A4.34,4.34,0,0,0,95.15,23a5.93,5.93,0,0,0-4.21-1.31,11.68,11.68,0,0,0-5,1.16,9.81,9.81,0,0,0-4,3.5A10,10,0,0,0,80.35,32a5.71,5.71,0,0,0,.29,2.18,3.86,3.86,0,0,1,.3.7A5.33,5.33,0,0,1,77.55,34a3.6,3.6,0,0,1-1.14-3,8.39,8.39,0,0,1,2.16-5.46,15.55,15.55,0,0,1,5.72-4.17,18.15,18.15,0,0,1,7.49-1.59,12,12,0,0,1,5,.93,7,7,0,0,1,3,2.46,6,6,0,0,1,1,3.35,7.17,7.17,0,0,1-1.1,3.77,8.35,8.35,0,0,1-3.13,3,5.42,5.42,0,0,1,3.77,2.35,8,8,0,0,1,1.23,4.47,17.47,17.47,0,0,1-.91,5.25,11.8,11.8,0,0,1-3,4.89,7.35,7.35,0,0,1-5.36,2.06A6,6,0,0,1,89.35,51.57Z"/><path class="cls-1" d="M106.05,30.37h6.1L111.6,33a16.54,16.54,0,0,1,2.61-1.95,4.91,4.91,0,0,1,2.52-.68,2.67,2.67,0,0,1,2.14.93,3.39,3.39,0,0,1,.78,2.25,3.19,3.19,0,0,1-.81,2.16,2.79,2.79,0,0,1-2.24.93,1.44,1.44,0,0,1-1.25-.45,3.44,3.44,0,0,1-.49-1.29,4,4,0,0,0-.25-.8.47.47,0,0,0-.47-.26,2.92,2.92,0,0,0-1.5.36,10.53,10.53,0,0,0-1.59,1.25l-3.39,16.1h-6.09Z"/><path class="cls-1" d="M120.14,50.53a5.21,5.21,0,0,1-1.25-3.81,14.39,14.39,0,0,1,.34-2.76l2.88-13.59h6.09l-3,14.4a5,5,0,0,0-.17,1.35,1.55,1.55,0,0,0,.4,1.21,2,2,0,0,0,1.33.36,3.21,3.21,0,0,0,2.29-1A5.92,5.92,0,0,0,130.53,44h1.78q-1.56,4.57-4,6.21a8.75,8.75,0,0,1-4.87,1.63A4.37,4.37,0,0,1,120.14,50.53Zm3.79-23.42a3.23,3.23,0,0,1-1-2.37,3.33,3.33,0,0,1,1-2.4,3.2,3.2,0,0,1,2.37-1,3.26,3.26,0,0,1,2.39,1,3.31,3.31,0,0,1,1,2.4,3.21,3.21,0,0,1-1,2.37,3.28,3.28,0,0,1-2.39,1A3.22,3.22,0,0,1,123.93,27.11Z"/><path class="cls-1" d="M134.77,61.08a3.67,3.67,0,0,1-1.36-3,4.61,4.61,0,0,1,2-3.88,17,17,0,0,1,5-2.44l.51-2.24a6.74,6.74,0,0,1-5.09,2.33,5.38,5.38,0,0,1-4-1.65q-1.6-1.65-1.61-5.17a19.38,19.38,0,0,1,1.25-6.58,15.15,15.15,0,0,1,3.73-5.85A8.23,8.23,0,0,1,141,30.16a4.6,4.6,0,0,1,2.58.59,1.85,1.85,0,0,1,.85,1.57v.25l.46-2.2H151L146.8,50a7.54,7.54,0,0,0,3.26-2,10.87,10.87,0,0,0,2.07-4h1.78a11.92,11.92,0,0,1-3.09,5.53,10.39,10.39,0,0,1-4.4,2.39l-.64,3c-.56,2.74-1.54,4.63-2.92,5.66a7.68,7.68,0,0,1-4.7,1.54A5.36,5.36,0,0,1,134.77,61.08Zm3.81-3.22a7.73,7.73,0,0,0,1.06-2.8l.25-1.23c-2.76,1-4.15,2.22-4.15,3.6a1.45,1.45,0,0,0,.38,1,1.37,1.37,0,0,0,1.06.42A1.82,1.82,0,0,0,138.58,57.86Zm1.91-11.06a4.56,4.56,0,0,0,1.39-2.41l2.16-10a1.7,1.7,0,0,0-.42-1,1.58,1.58,0,0,0-1.31-.53,3.78,3.78,0,0,0-3.05,2,15.59,15.59,0,0,0-2.12,4.75,18.68,18.68,0,0,0-.76,4.89c0,1.41.2,2.31.61,2.71a2.07,2.07,0,0,0,1.51.59A3,3,0,0,0,140.49,46.8Z"/><path class="cls-1" d="M163.76,50.42A4.94,4.94,0,0,1,162.55,47a11.08,11.08,0,0,1,.21-2c.14-.75.29-1.47.45-2.18s.26-1.16.32-1.35c.22-1,.43-2,.63-2.93a11.92,11.92,0,0,0,.3-2.33q0-2.16-1.53-2.16a2.46,2.46,0,0,0-2,1.08A8.42,8.42,0,0,0,159.63,38l-2.88,13.6h-6.1l6.14-28.8,6.27-.85-2.29,10.67a6.47,6.47,0,0,1,5-2.37,4.84,4.84,0,0,1,3.43,1.19,4.72,4.72,0,0,1,1.27,3.6,14,14,0,0,1-.3,2.73q-.3,1.5-.84,3.66c-.23.88-.44,1.73-.62,2.56a10,10,0,0,0-.27,2,2,2,0,0,0,.38,1.32,1.6,1.6,0,0,0,1.31.46,2.5,2.5,0,0,0,2-.91A10.6,10.6,0,0,0,173.65,44h1.78q-1.58,4.66-3.62,6.25a6.88,6.88,0,0,1-4.26,1.59A4.78,4.78,0,0,1,163.76,50.42Z"/><path class="cls-1" d="M174.56,50.49a5.48,5.48,0,0,1-1-3.48,10.9,10.9,0,0,1,.25-2.24l2.72-12.71h-1.4l.34-1.69h1.39l1.27-5.84,6.27-.85c-.25,1.07-.39,1.71-.42,1.9-.2.8-.54,2.39-1,4.79h2.54l-.34,1.69h-2.54l-2.71,12.71a7.18,7.18,0,0,0-.21,1.48,1.33,1.33,0,0,0,1.48,1.53,3.62,3.62,0,0,0,1.11-.13,6.76,6.76,0,0,1-2,3.3,4.06,4.06,0,0,1-2.49.85A3.84,3.84,0,0,1,174.56,50.49Z"/><path class="cls-1" d="M195.5,51.38a7.23,7.23,0,0,1-3.13-2.61,6.81,6.81,0,0,1-1.1-3.87,7.3,7.3,0,0,1,.78-3.39,6.32,6.32,0,0,1,2.12-2.42,5.21,5.21,0,0,1,2.94-.88,4.09,4.09,0,0,1,2.5.74,3.15,3.15,0,0,1,1.27,2,5.11,5.11,0,0,0-3.52,1.17,4.43,4.43,0,0,0-.21,6.07,3.94,3.94,0,0,0,2.92,1.1,5,5,0,0,0,3.71-1.5,5.24,5.24,0,0,0,1.46-3.79,7.08,7.08,0,0,0-1.1-3.77,35.19,35.19,0,0,0-3.3-4.32,35.89,35.89,0,0,1-3.46-4.51,7.76,7.76,0,0,1-1.16-4.13,6.74,6.74,0,0,1,1.23-4,8.34,8.34,0,0,1,3.39-2.77,11.26,11.26,0,0,1,4.87-1,8.67,8.67,0,0,1,5.48,1.61,5.2,5.2,0,0,1,2.06,4.32,4.44,4.44,0,0,1-.89,2.88,2.87,2.87,0,0,1-2.33,1.1,3.08,3.08,0,0,1-2.59-1.31,4.11,4.11,0,0,0,1.27-1.57,4.68,4.68,0,0,0,.47-2,2.92,2.92,0,0,0-.8-2.16,3,3,0,0,0-2.21-.81,3.53,3.53,0,0,0-2.77,1.21,4.43,4.43,0,0,0-1.08,3.07,5.6,5.6,0,0,0,1,3.16,35,35,0,0,0,3.05,3.74c1.13,1.22,2,2.26,2.73,3.14a12.8,12.8,0,0,1,1.78,3,9.13,9.13,0,0,1,.74,3.7,8.5,8.5,0,0,1-1.5,4.91A10.34,10.34,0,0,1,206,51a13.07,13.07,0,0,1-5.78,1.27A11.2,11.2,0,0,1,195.5,51.38Z"/><path class="cls-1" d="M217.31,28.8h6.1L222.73,32a7.39,7.39,0,0,1,5-1.82,4.78,4.78,0,0,1,3.77,1.57q1.39,1.56,1.39,5.12a24.42,24.42,0,0,1-1,6.75,13.51,13.51,0,0,1-3.3,5.81,8.21,8.21,0,0,1-6.14,2.39c-1.81,0-3-.51-3.6-1.52l-2.21,10.33-6.39,1.52Zm7.18,17.41a13,13,0,0,0,1.95-4.55,21.91,21.91,0,0,0,.61-4.94c0-2.34-.7-3.51-2.12-3.51a2.66,2.66,0,0,0-1.54.55A5,5,0,0,0,222,35.28l-2.5,11.86a1.52,1.52,0,0,0,1.61,1A4,4,0,0,0,224.49,46.21Z"/><path class="cls-1" d="M235.1,50.15q-1.6-1.65-1.61-5.17a19.38,19.38,0,0,1,1.25-6.58,15,15,0,0,1,3.73-5.85,8.22,8.22,0,0,1,5.9-2.39,4.61,4.61,0,0,1,2.59.59,1.84,1.84,0,0,1,.84,1.57v.29l.47-2.24h6.1l-3.05,14.4a5.37,5.37,0,0,0-.17,1.35q0,1.83,1.74,1.83a2.55,2.55,0,0,0,2.05-1.11A8.22,8.22,0,0,0,256.32,44h1.78q-1.58,4.57-3.88,6.21a8,8,0,0,1-4.64,1.63,4,4,0,0,1-2.86-1,4.44,4.44,0,0,1-1.29-2.9,11.86,11.86,0,0,1-2.73,2.82,6,6,0,0,1-3.58,1.08A5.38,5.38,0,0,1,235.1,50.15ZM244,46.7A5.25,5.25,0,0,0,245.39,44l2-9.57a1.76,1.76,0,0,0-.42-1.08,1.58,1.58,0,0,0-1.31-.53,3.78,3.78,0,0,0-3.05,2,15.59,15.59,0,0,0-2.12,4.75,18.68,18.68,0,0,0-.76,4.89c0,1.41.2,2.31.61,2.71a2.07,2.07,0,0,0,1.51.59A3.06,3.06,0,0,0,244,46.7Z"/><path class="cls-1" d="M257.63,50.17q-1.74-1.64-1.74-5.1a20.53,20.53,0,0,1,1.17-6.44,15.3,15.3,0,0,1,3.72-6.08A8.82,8.82,0,0,1,267.29,30a5,5,0,0,1,3.62,1.1A3.82,3.82,0,0,1,272,33.88a3.63,3.63,0,0,1-.64,2.29,2,2,0,0,1-1.61.81,2.67,2.67,0,0,1-1.48-.51,7.41,7.41,0,0,0,.51-2.5,2.32,2.32,0,0,0-.3-1.27,1,1,0,0,0-.89-.47c-.84,0-1.69.7-2.54,2.08a18.92,18.92,0,0,0-2.07,5,20.45,20.45,0,0,0-.81,5.33,4.09,4.09,0,0,0,.72,2.82,3.12,3.12,0,0,0,2.33.74,7,7,0,0,0,3.92-1.06A18.7,18.7,0,0,0,272.71,44h1.44q-4.71,7.84-11.65,7.84A6.83,6.83,0,0,1,257.63,50.17Z"/><path class="cls-1" d="M274,50.17q-1.74-1.64-1.74-5.1a21,21,0,0,1,1.14-6.44,15.1,15.1,0,0,1,3.73-6.08A8.92,8.92,0,0,1,283.67,30q4.66,0,4.66,4.06A7.62,7.62,0,0,1,287,38.42a10,10,0,0,1-3.6,3.19A11.51,11.51,0,0,1,278.59,43c0,.62-.08,1-.08,1.27q0,3.52,2.62,3.52a6.06,6.06,0,0,0,2.54-.64,10,10,0,0,0,2.46-1.61Q285,51.8,278.8,51.8A6.73,6.73,0,0,1,274,50.17Zm7.94-10.27a7.67,7.67,0,0,0,2.28-2.61,6.78,6.78,0,0,0,.87-3.32c0-1.16-.35-1.74-1.06-1.74-1,0-2,.9-2.94,2.69a22.74,22.74,0,0,0-2.18,6A5.38,5.38,0,0,0,281.92,39.9Z"/></g></svg>