<svg xmlns="http://www.w3.org/2000/svg" viewBox="0 0 300 80"><g id="final"><path d="M92.3,16.63c-8.6,0-13.75,6.84-13.75,15.27v12h0a3.26,3.26,0,1,0,6.51,0h0V32c0-6.06,3.24-8.77,7.24-8.77s7.24,3.14,7.24,8.77V43.92h0a3.26,3.26,0,1,0,6.51,0h0v-12C106.05,23.47,101.26,16.63,92.3,16.63Z"/><path d="M117.64,19.86a3.24,3.24,0,0,0-6.48-.05V43.89a3.24,3.24,0,0,0,6.48,0Z"/><path d="M187.63,31.8a14.61,14.61,0,0,0-4.49-10.73,15.2,15.2,0,0,0-21.49,0,14.67,14.67,0,0,0-4.47,10.76,14.66,14.66,0,0,0,4.47,10.76,14.66,14.66,0,0,0,10.76,4.47,14.91,14.91,0,0,0,8.75-2.76h0a3.25,3.25,0,0,0,6.47-.36Zm-15.22,8.75a8.74,8.74,0,0,1-8.75-8.75,8.75,8.75,0,1,1,15,6.19A8.49,8.49,0,0,1,172.41,40.55Z"/><path d="M256.46,31.8A14.61,14.61,0,0,0,252,21.07a15.2,15.2,0,0,0-21.49,0A14.67,14.67,0,0,0,226,31.85a14.66,14.66,0,0,0,4.47,10.76,14.66,14.66,0,0,0,10.76,4.47A14.91,14.91,0,0,0,250,44.32h0a3.25,3.25,0,0,0,6.47-.36Zm-15.22,8.75a8.74,8.74,0,0,1-8.75-8.75,8.75,8.75,0,1,1,15,6.19A8.49,8.49,0,0,1,241.24,40.55Z"/><path d="M148.72,21.09a15.23,15.23,0,0,0-26,10.71V53.42a3.24,3.24,0,0,0,6.48,0V44.32A14.88,14.88,0,0,0,138,47.08a14.66,14.66,0,0,0,10.76-4.47,14.66,14.66,0,0,0,4.47-10.76A14.67,14.67,0,0,0,148.72,21.09ZM144.15,38a8.74,8.74,0,0,1-14.94-6.19A8.75,8.75,0,1,1,144.15,38Z"/><path d="M217.91,21.08a15.19,15.19,0,0,0-21.49,0,14.64,14.64,0,0,0-4.49,10.73V53.41a3.24,3.24,0,0,0,6.48,0V44.31a14.86,14.86,0,0,0,8.75,2.75,14.64,14.64,0,0,0,10.75-4.47,14.64,14.64,0,0,0,4.47-10.75A14.66,14.66,0,0,0,217.91,21.08ZM213.34,38a8.73,8.73,0,0,1-14.93-6.19A8.66,8.66,0,0,1,207.16,23a8.71,8.71,0,0,1,8.74,8.75A8.43,8.43,0,0,1,213.34,38Z"/><path d="M70.83,14.74A3.23,3.23,0,0,0,67.6,18V32.11A8.45,8.45,0,0,1,65,38.23a8.8,8.8,0,0,1-6.24,2.53,8.7,8.7,0,0,1-6.2-2.53,8.42,8.42,0,0,1-2.54-6.12V18a3.26,3.26,0,0,0-6.51,0V32a14.66,14.66,0,0,0,4.51,10.73,15.17,15.17,0,0,0,21.47,0A14.66,14.66,0,0,0,74,32V18A3.21,3.21,0,0,0,70.83,14.74Z"/><circle cx="114.4" cy="10.97" r="3.6"/></g></svg>