<svg id="final" xmlns="http://www.w3.org/2000/svg" viewBox="0 0 270 50"><defs><style>.cls-1{fill:#21219c;}.cls-2{fill:#fff;}.cls-3{fill:#232323;}</style></defs><path class="cls-1" d="M25.09,12.4c2.22,4.61-.5,21.25-.5,21.25,6.08-4.59,11.88-20.22,13-23.34L29.66,2.39a4.75,4.75,0,0,0-6.71,0L18.2,7.14A9.38,9.38,0,0,1,25.09,12.4Z"/><path class="cls-1" d="M30.28,29.78c-2,2.63-8.82,9.72-11.2,8.65-2.12-1-1.82-5-1.82-5s-.41-9.39-.49-12.43-.66-5.19-2.47-6.51a9.41,9.41,0,0,0-2.36-1.14L3.69,21.65a4.74,4.74,0,0,0,0,6.7L19.54,44.2A27.84,27.84,0,0,0,30.28,29.78Z"/><path class="cls-1" d="M48.92,21.65,44.8,17.53a59.55,59.55,0,0,1-9.5,15.21c-5.59,6.8-10.37,10.74-14.2,13L23,47.61a4.75,4.75,0,0,0,6.71,0L48.92,28.35A4.74,4.74,0,0,0,48.92,21.65Z"/><path class="cls-1" d="M10.76,48.64s3.73,1,10.34-2.88L19.54,44.2A34.14,34.14,0,0,1,10.76,48.64Z"/><path class="cls-2" d="M35.3,32.74a59.55,59.55,0,0,0,9.5-15.21l-7.22-7.22c-1.11,3.12-6.91,18.75-13,23.34,0,0,2.72-16.64.5-21.25A9.38,9.38,0,0,0,18.2,7.14L11.94,13.4a9.41,9.41,0,0,1,2.36,1.14c1.81,1.32,2.39,3.46,2.47,6.51s.49,12.43.49,12.43-.3,4,1.82,5c2.38,1.07,9.22-6,11.2-8.65A27.84,27.84,0,0,1,19.54,44.2l1.56,1.56C24.93,43.48,29.71,39.54,35.3,32.74Z"/><path class="cls-3" d="M63.62,15.89l-.49-1.62a18.23,18.23,0,0,0,3.28-6.4l1.41.66A23,23,0,0,1,66.38,12V22.72H64.89V14.35C64.49,14.88,64.07,15.39,63.62,15.89ZM71,9.61c.18-.57.34-1.15.48-1.72l1.49.25c-.13.51-.27,1-.4,1.47H78v1.46H72c-.23.56-.48,1.1-.74,1.62h5.63V21c0,1-.56,1.52-1.66,1.52H73.75l-.33-1.29,1.42,0c.45,0,.69-.25.69-.76V19.41H70.81a5.44,5.44,0,0,1-1.43,3.31l-1.08-1A5.22,5.22,0,0,0,69.53,18V15.36a14.19,14.19,0,0,1-1.68,1.7l-.91-1.14a13.7,13.7,0,0,0,3.47-4.85H67.8V9.61Zm-.07,8.3c0,.09,0,.17,0,.27h4.64v-1.4H70.9Zm4.63-3.85H70.9v1.48h4.63Z"/><path class="cls-3" d="M82.55,14.34v1.74a15.72,15.72,0,0,1-1.26,6.45l-1-1.09a14.86,14.86,0,0,0,.88-5.36V9.13a11.87,11.87,0,0,0,5-1.18l.75,1.36a13.06,13.06,0,0,1-4.34,1.09v2.48h4.53V14.3a17.46,17.46,0,0,0,1.71-6.51L90.28,8c-.09.8-.21,1.54-.33,2.24h4.81v1a33.13,33.13,0,0,1-1.07,4.08l-1.46-.42a16.54,16.54,0,0,0,1-3.18H89.63a12.17,12.17,0,0,1-1.7,4l-1.19-.83c.12-.2.23-.37.32-.56H85.8v8.32H84.3V14.34Zm9-1.6a25,25,0,0,1-.14,2.84,11.73,11.73,0,0,0,3.74,5.94l-1,1.16A13.54,13.54,0,0,1,91,18s0,.05,0,.08a8.06,8.06,0,0,1-3.48,4.68l-1-1.17a7.4,7.4,0,0,0,3-3.88,17.86,17.86,0,0,0,.58-5Z"/><path class="cls-3" d="M100.17,12.11v-2c-.72.1-1.46.19-2.2.26l-.28-1.43a27,27,0,0,0,5.53-1l.53,1.43c-.65.17-1.34.33-2,.46v2.24h2v1.46h-2v.62a31,31,0,0,1,2.6,2.21l-.85,1.3c-.69-.85-1.27-1.54-1.75-2v7h-1.53v-6.9a15.36,15.36,0,0,1-2.32,3.86l-.68-1.69A12,12,0,0,0,100,13.57H97.67V12.11Zm12,5.83-1.51.24v4.46h-1.54V18.43l-4.81.77-.23-1.47,5-.82V8h1.54v8.69l1.27-.21Zm-4-3L107.11,16a19,19,0,0,0-2.81-2.46l1.07-1A19.68,19.68,0,0,1,108.2,14.91Zm.42-3.79-1,1.05a16.76,16.76,0,0,0-2.8-2.33l1.07-1A19.92,19.92,0,0,1,108.62,11.12Z"/><path class="cls-3" d="M114.93,22.52l-.32-1.43a8.28,8.28,0,0,0,1.17.1c.39,0,.58-.23.58-.66V17.14c-.58.22-1.17.44-1.75.64l-.38-1.51a18.4,18.4,0,0,0,2.13-.62V12.19h-1.81V10.73h1.81V7.93h1.47v2.8h1.57v1.46h-1.57V15c.55-.26,1.07-.53,1.6-.82v1.49c-.53.29-1.05.55-1.6.8v4.4c0,1.06-.51,1.61-1.53,1.61Zm8.66-12.41V8h1.48v2.14h3.74v1.46h-3.74v2.29h3.13V15.2a10.19,10.19,0,0,1-2.57,4.31,16,16,0,0,0,3.63,1.95l-.78,1.25a17.58,17.58,0,0,1-3.89-2.28,15.52,15.52,0,0,1-4.42,2.33l-.72-1.27a13.5,13.5,0,0,0,4.06-2A9.47,9.47,0,0,1,121,15.28h-.83V13.86h3.42V11.57h-3.74V10.11Zm1,8.5a9.55,9.55,0,0,0,2.17-3.33h-4.29A7.53,7.53,0,0,0,124.55,18.61Z"/><path class="cls-3" d="M134,9.85a12.4,12.4,0,0,0-.81-1.58l1.44-.4a16.86,16.86,0,0,1,.84,2h2.11v1.38h-6.07V9.85Zm3.07,11.62a13.31,13.31,0,0,0,3.79-1.9,8.57,8.57,0,0,1-1.92-3.46H138V14.64h7V16a8.91,8.91,0,0,1-2,3.64,14.21,14.21,0,0,0,3.28,1.8l-.82,1.32A15.75,15.75,0,0,1,142,20.64a13.56,13.56,0,0,1-4.14,2.13l-.77-1.18v.14h-3.67v.72H132V16.86h5.09Zm-.13-9.23v1.31h-4.83V12.24Zm0,2.21v1.33H132.1V14.45Zm-1.26,5.94V18.18h-2.28v2.21Zm8.53-11.94v3.36c0,.35.21.54.64.54h1v1.39h-1.43c-1.17,0-1.74-.54-1.74-1.6V9.87h-2.12v.53a4.2,4.2,0,0,1-2.24,3.78l-1-1.11a2.75,2.75,0,0,0,1.75-2.51V8.45Zm-2.31,10.19a8.49,8.49,0,0,0,1.67-2.53h-3.19A7,7,0,0,0,141.88,18.64Z"/><path class="cls-3" d="M150.92,9.84a13.55,13.55,0,0,0-.79-1.57l1.46-.4a16.68,16.68,0,0,1,.8,2h2.13v1.41h-6.15V9.84Zm-.55,12.84h-1.45V16.82H154v5.63h-1.46v-.67h-2.15Zm3.51-10.46v1.33H149V12.22Zm0,2.23v1.34H149V14.45Zm-1.36,3.76h-2.15v2.18h2.15ZM159.61,8v5.12h3.54v1.47h-3.54v8.14h-1.49V14.54h-3.36V13.07h3.36V8Z"/><path class="cls-3" d="M168.66,10.43V9.74h-3V8.59h3V7.92H170v.67h2.86V9.74H170v.69h2.51v3H170v.11c.89.34,1.82.74,2.75,1.18L172,15.84c-.77-.58-1.44-1-2-1.36V16h-1.35V14.42A14.23,14.23,0,0,1,166,16.14l-.64-1.2a12.06,12.06,0,0,0,3.16-1.53h-2.38v-3Zm10.53,5.95v1.33h-5.74v1h4.77V20h-4.77v1H180V22.4H165.65V21h2.44V18.29h1.4V21h2.45V17.71h-5.49V16.38Zm-10.53-4.93h-1.31v1h1.31Zm2.66,0H170v1h1.31Zm2.74.66-.64.77-.88-1.12a8.41,8.41,0,0,0,2-3.87l1.36.17c-.1.37-.19.72-.29,1.07h4.18v1.28h-.85a7.37,7.37,0,0,1-1.42,3.41,8.87,8.87,0,0,0,2.54,1l-.78,1.2a9.66,9.66,0,0,1-2.8-1.29,12.06,12.06,0,0,1-3,1.24L173,14.75a9.76,9.76,0,0,0,2.37-.93A7.08,7.08,0,0,1,174.06,12.11Zm0,0,1.09-.63A5.19,5.19,0,0,0,176.38,13h0a5.26,5.26,0,0,0,1.17-2.6h-2.51A10.47,10.47,0,0,1,174.07,12.08Z"/><path class="cls-3" d="M190.39,7.89a22.91,22.91,0,0,0,7,5.37l-.82,1.46A24.19,24.19,0,0,1,194,13.18v1.14h-8.42V13.15a24.22,24.22,0,0,1-2.54,1.6l-.8-1.47a23.09,23.09,0,0,0,7-5.39Zm4.66,14.79h-1.47v-.87h-7.49v.87h-1.48V16h10.44Zm-1.44-9.82a21.49,21.49,0,0,1-3.78-3.6,20.82,20.82,0,0,1-3.81,3.6Zm0,7.51V17.46h-7.49v2.91Z"/><path class="cls-3" d="M202.84,22.71l-1.11-1a5.39,5.39,0,0,0,1.49-3.82V14.67a20.93,20.93,0,0,1-2.77,2.71l-1-1.28a17.29,17.29,0,0,0,4.4-5.08h-4V9.57h4.69c.24-.58.45-1.16.64-1.75l1.55.18c-.16.54-.33,1.07-.52,1.57H214V11h-8.38a15.71,15.71,0,0,1-.88,1.56h7.32v8.59c0,.94-.54,1.43-1.6,1.43h-1.63l-.36-1.37c.55,0,1.08.07,1.56.07s.59-.23.59-.64V19.31H204.5A6.57,6.57,0,0,1,202.84,22.71Zm1.81-4.92c0,.07,0,.15,0,.21h6V16.62h-6Zm6-3.9h-6v1.42h6Z"/><path class="cls-3" d="M222.26,8.46v1.2c-.48,1.38-1,2.82-1.68,4.34a8,8,0,0,1,1.62,3.86,2.23,2.23,0,0,1-.48,1.6,3.84,3.84,0,0,1-2.48.62l-.5-1.53a7.24,7.24,0,0,0,.82.08,2.24,2.24,0,0,0,.9-.2.69.69,0,0,0,.22-.57,6,6,0,0,0-1.63-3.64,41.61,41.61,0,0,0,1.69-4.33h-2.19V22.71h-1.49V8.46Zm2,12.12a20,20,0,0,0,2.54-1l.37,1.41a34.36,34.36,0,0,1-4.43,1.42l-.37-1.33c.25-.09.4-.24.4-.45V8.45H230V15.6H224.3Zm4.24-10.69H224.3v1.48h4.24Zm-4.24,4.32h4.24V12.74H224.3ZM231,17.07A7.89,7.89,0,0,1,228.71,19a8.64,8.64,0,0,0,2.66,2.28l-.88,1.3a10.23,10.23,0,0,1-4.38-5.62l1.13-.64a12.48,12.48,0,0,0,.75,1.6,7.81,7.81,0,0,0,2-1.77Z"/><path class="cls-3" d="M239.38,9a17.86,17.86,0,0,1-4.48,7.36l-1.2-1A15.51,15.51,0,0,0,238,8.43Zm7.51,13-1.42.64c-.23-.54-.44-1-.66-1.5-2.78.41-5.89.73-9.3,1l-.27-1.48q1.71-.54,4.75-7.34l1.51.51a41.93,41.93,0,0,1-3.91,6.75c2.27-.14,4.47-.38,6.6-.7-.55-1.06-1.09-2-1.65-2.9l1.37-.45A33.19,33.19,0,0,1,246.89,22.05ZM244.41,8.38a11.72,11.72,0,0,0,3.86,6.85l-1.2,1.07a12.79,12.79,0,0,1-3.81-6.49H240.7V8.38Z"/><path class="cls-3" d="M261,11.61V13H250.87v-1.4Zm-1,11-.39-1.46,2.27,0c.39,0,.58-.28.58-.86V9.93H251.69V8.46h12.24V20.71c0,1.25-.59,1.87-1.78,1.87Zm-.45-7.92v5.21h-7.33V14.66ZM258,16h-4.42v2.51H258Z"/><path class="cls-3" d="M67.69,38.45,64,32.81h1.5l2.78,4.48,2.87-4.48h1.42l-3.7,5.64v4.27H67.69Z"/><path class="cls-3" d="M71.69,39.45a3.49,3.49,0,0,1,.26-1.4A3.42,3.42,0,0,1,72.68,37a3.14,3.14,0,0,1,1.1-.7A3.8,3.8,0,0,1,75.19,36a3.7,3.7,0,0,1,1.39.26,3.18,3.18,0,0,1,1.11.7,3.42,3.42,0,0,1,.73,1.09,3.76,3.76,0,0,1,0,2.8,3.27,3.27,0,0,1-.73,1.08,3.2,3.2,0,0,1-1.11.71,3.7,3.7,0,0,1-1.39.25,3.8,3.8,0,0,1-1.41-.25,3.16,3.16,0,0,1-1.1-.71A3.27,3.27,0,0,1,72,40.85,3.53,3.53,0,0,1,71.69,39.45Zm1.17,0a2.76,2.76,0,0,0,.16,1,2.42,2.42,0,0,0,.47.77,2.13,2.13,0,0,0,.74.51,2.5,2.5,0,0,0,1.91,0,2.13,2.13,0,0,0,.74-.51,2.42,2.42,0,0,0,.47-.77,3,3,0,0,0,.16-1,2.93,2.93,0,0,0-.16-1,2.22,2.22,0,0,0-1.21-1.29,2.5,2.5,0,0,0-1.91,0A2.22,2.22,0,0,0,73,38.49,2.69,2.69,0,0,0,72.86,39.45Z"/><path class="cls-3" d="M80.14,39.45a3.5,3.5,0,0,1,.27-1.4A3.26,3.26,0,0,1,81.14,37a3,3,0,0,1,1.1-.7,3.79,3.79,0,0,1,1.4-.26,3.75,3.75,0,0,1,1.4.26,3.18,3.18,0,0,1,1.11.7,3.4,3.4,0,0,1,.72,1.09,3.76,3.76,0,0,1,0,2.8,3.25,3.25,0,0,1-.72,1.08,3.2,3.2,0,0,1-1.11.71,4,4,0,0,1-2.8,0,3.07,3.07,0,0,1-1.1-.71,3.13,3.13,0,0,1-.73-1.08A3.53,3.53,0,0,1,80.14,39.45Zm1.18,0a2.76,2.76,0,0,0,.16,1,2.25,2.25,0,0,0,.47.77,2.09,2.09,0,0,0,.73.51,2.32,2.32,0,0,0,1,.19,2.29,2.29,0,0,0,1-.19,2.19,2.19,0,0,0,1.2-1.28,2.77,2.77,0,0,0,.17-1,2.69,2.69,0,0,0-.17-1,2,2,0,0,0-.47-.77,2.26,2.26,0,0,0-.73-.52,2.29,2.29,0,0,0-1-.19,2.32,2.32,0,0,0-1,.19,2.26,2.26,0,0,0-.73.52,2.16,2.16,0,0,0-.47.77A2.69,2.69,0,0,0,81.32,39.45Z"/><path class="cls-3" d="M90.67,39.2l-2.35-3h1.42l1.74,2.35,1.64-2.35h1.33l-2.26,3,2.71,3.52H93.45L91.38,39.9l-2,2.82H88Z"/><path class="cls-3" d="M96,33.61a.79.79,0,0,1,.23-.56.76.76,0,0,1,.57-.24.8.8,0,1,1,0,1.6.75.75,0,0,1-.57-.23A.78.78,0,0,1,96,33.61Zm.25,2.56H97.3v6.55H96.21Z"/><path class="cls-3" d="M99.61,37.73c0-.3,0-.58,0-.84s0-.5,0-.72h1c0,.18,0,.36,0,.53s0,.36,0,.55h0a2.22,2.22,0,0,1,.8-.86,2.66,2.66,0,0,1,1.38-.39,2.91,2.91,0,0,1,1.12.2,2.09,2.09,0,0,1,.78.55,2.26,2.26,0,0,1,.45.84,3.78,3.78,0,0,1,.15,1.09v4h-1.1V38.79a2.09,2.09,0,0,0-.36-1.3,1.32,1.32,0,0,0-1.13-.48,2.16,2.16,0,0,0-.92.18,1.61,1.61,0,0,0-.63.52,2.25,2.25,0,0,0-.36.8,4.08,4.08,0,0,0-.12,1v3.19h-1.1Z"/><path class="cls-3" d="M118.42,33.9h-3.28v8.82H114V33.9h-3.27V32.81h7.73Z"/><path class="cls-3" d="M124,41.53a3.29,3.29,0,0,1-1.28,1.06,4.12,4.12,0,0,1-1.63.3,3.4,3.4,0,0,1-1.38-.27,3.07,3.07,0,0,1-1-.74,3.31,3.31,0,0,1-.66-1.09,4,4,0,0,1-.23-1.34,3.75,3.75,0,0,1,.26-1.4,3.19,3.19,0,0,1,.7-1.09,3,3,0,0,1,1.06-.7,3.48,3.48,0,0,1,1.34-.26,3.4,3.4,0,0,1,1.26.23,2.66,2.66,0,0,1,1,.68,2.94,2.94,0,0,1,.64,1.07,4.37,4.37,0,0,1,.22,1.45v.35H119a2.53,2.53,0,0,0,.2.81,2.42,2.42,0,0,0,.46.67,2.11,2.11,0,0,0,.66.46,2,2,0,0,0,.82.16,2.61,2.61,0,0,0,1.21-.25,2.76,2.76,0,0,0,.88-.74Zm-.93-2.67a1.89,1.89,0,0,0-.55-1.34,2,2,0,0,0-1.43-.51A2,2,0,0,0,119,38.86Z"/><path class="cls-3" d="M130.78,37.81a2.25,2.25,0,0,0-.76-.61,2,2,0,0,0-.89-.19,2.27,2.27,0,0,0-1,.19,1.83,1.83,0,0,0-.69.53,2.49,2.49,0,0,0-.42.77,3.26,3.26,0,0,0-.14,1,2.66,2.66,0,0,0,.17.94,2.29,2.29,0,0,0,.44.78,2,2,0,0,0,.7.52,2.06,2.06,0,0,0,.91.19,1.92,1.92,0,0,0,1.66-.81l.81.77a2.76,2.76,0,0,1-1.12.8,3.6,3.6,0,0,1-1.35.25,3.66,3.66,0,0,1-1.39-.25,3.08,3.08,0,0,1-1.07-.71,3.54,3.54,0,0,1-.69-1.1,3.85,3.85,0,0,1-.24-1.38,3.79,3.79,0,0,1,.24-1.37,3.17,3.17,0,0,1,1.77-1.82,3.57,3.57,0,0,1,1.38-.26,3.8,3.8,0,0,1,1.38.26,2.91,2.91,0,0,1,1.14.78Z"/><path class="cls-3" d="M133,32.14h1.1v4.94h0a1.79,1.79,0,0,1,.31-.38,2.5,2.5,0,0,1,.47-.35,3.38,3.38,0,0,1,.61-.25,2.71,2.71,0,0,1,.71-.1,3,3,0,0,1,1.12.2,2,2,0,0,1,.77.55,2.14,2.14,0,0,1,.46.84,3.78,3.78,0,0,1,.15,1.09v4h-1.1V38.79a2.09,2.09,0,0,0-.36-1.3,1.32,1.32,0,0,0-1.13-.48,2.16,2.16,0,0,0-.92.18,1.61,1.61,0,0,0-.63.52,2.25,2.25,0,0,0-.36.8,4.08,4.08,0,0,0-.12,1v3.19H133Z"/><path class="cls-3" d="M140.93,37.73q0-.45,0-.84c0-.27,0-.5,0-.72h1c0,.18,0,.36,0,.53s0,.36,0,.55h0a1.91,1.91,0,0,1,.32-.46,2.09,2.09,0,0,1,.48-.4,2.57,2.57,0,0,1,.63-.28,2.68,2.68,0,0,1,.76-.11,2.86,2.86,0,0,1,1.11.2,2.09,2.09,0,0,1,.78.55,2.12,2.12,0,0,1,.45.84,3.78,3.78,0,0,1,.15,1.09v4h-1.09V38.79a2,2,0,0,0-.37-1.3,1.32,1.32,0,0,0-1.13-.48,2.16,2.16,0,0,0-.92.18,1.76,1.76,0,0,0-.63.52,2.44,2.44,0,0,0-.36.8,4.08,4.08,0,0,0-.12,1v3.19h-1.09Z"/><path class="cls-3" d="M148.47,39.45a3.5,3.5,0,0,1,.27-1.4,3.42,3.42,0,0,1,.73-1.09,3.14,3.14,0,0,1,1.1-.7A3.79,3.79,0,0,1,152,36a3.75,3.75,0,0,1,1.4.26,3.18,3.18,0,0,1,1.11.7,3.42,3.42,0,0,1,.73,1.09,3.9,3.9,0,0,1,0,2.8,3.27,3.27,0,0,1-.73,1.08,3.2,3.2,0,0,1-1.11.71,4,4,0,0,1-2.8,0,3.16,3.16,0,0,1-1.1-.71,3.27,3.27,0,0,1-.73-1.08A3.53,3.53,0,0,1,148.47,39.45Zm1.18,0a2.76,2.76,0,0,0,.16,1,2.25,2.25,0,0,0,.47.77,2,2,0,0,0,.74.51,2.5,2.5,0,0,0,1.91,0,2.13,2.13,0,0,0,.74-.51,2.42,2.42,0,0,0,.47-.77,3,3,0,0,0,.16-1,2.93,2.93,0,0,0-.16-1,2.22,2.22,0,0,0-1.21-1.29,2.5,2.5,0,0,0-1.91,0,2.2,2.2,0,0,0-.74.52,2.16,2.16,0,0,0-.47.77A2.69,2.69,0,0,0,149.65,39.45Z"/><path class="cls-3" d="M157.41,32.14h1.09V42.72h-1.09Z"/><path class="cls-3" d="M160.43,39.45a3.5,3.5,0,0,1,.27-1.4,3.4,3.4,0,0,1,.72-1.09,3.18,3.18,0,0,1,1.11-.7,3.9,3.9,0,0,1,2.8,0,3.18,3.18,0,0,1,1.11.7,3.4,3.4,0,0,1,.72,1.09,3.76,3.76,0,0,1,0,2.8,3.25,3.25,0,0,1-.72,1.08,3.2,3.2,0,0,1-1.11.71,4,4,0,0,1-2.8,0,3.2,3.2,0,0,1-1.11-.71,3.25,3.25,0,0,1-.72-1.08A3.53,3.53,0,0,1,160.43,39.45Zm1.18,0a2.76,2.76,0,0,0,.16,1,2.19,2.19,0,0,0,1.2,1.28,2.29,2.29,0,0,0,1,.19,2.32,2.32,0,0,0,1-.19,2.19,2.19,0,0,0,1.2-1.28,2.76,2.76,0,0,0,.16-1,2.69,2.69,0,0,0-.16-1,2,2,0,0,0-.47-.77,2.26,2.26,0,0,0-.73-.52,2.32,2.32,0,0,0-1-.19,2.29,2.29,0,0,0-1,.19,2.26,2.26,0,0,0-.73.52,2,2,0,0,0-.47.77A2.69,2.69,0,0,0,161.61,39.45Z"/><path class="cls-3" d="M175.8,42.43a3.73,3.73,0,0,1-.91,2.72,3.59,3.59,0,0,1-2.66.93,5,5,0,0,1-1.74-.28,4.13,4.13,0,0,1-1.48-1l.79-.9a3.75,3.75,0,0,0,1.1.85,3,3,0,0,0,1.33.29,3,3,0,0,0,1.21-.22,1.93,1.93,0,0,0,.77-.59,2.45,2.45,0,0,0,.39-.85,4.55,4.55,0,0,0,.11-1v-.84h0a2.31,2.31,0,0,1-1,.92,3,3,0,0,1-1.29.3,4,4,0,0,1-1.41-.25,3.35,3.35,0,0,1-1.11-.71,3,3,0,0,1-.71-1.06,3.47,3.47,0,0,1-.25-1.34,3.85,3.85,0,0,1,.25-1.44,3,3,0,0,1,.71-1.09,3.1,3.1,0,0,1,1.09-.68,4.09,4.09,0,0,1,1.43-.24,3,3,0,0,1,.67.08,2.7,2.7,0,0,1,1.22.64,2.33,2.33,0,0,1,.42.57h0V36.17h1.09Zm-5.74-3a2.41,2.41,0,0,0,.18.93,2.35,2.35,0,0,0,1.24,1.24,2.21,2.21,0,0,0,.89.18,2.41,2.41,0,0,0,1-.2,2.26,2.26,0,0,0,.73-.52,2.34,2.34,0,0,0,.46-.76,2.66,2.66,0,0,0,.15-.9,2.7,2.7,0,0,0-.17-1,2.31,2.31,0,0,0-.47-.77,2.12,2.12,0,0,0-.75-.49,2.44,2.44,0,0,0-.95-.18,2.23,2.23,0,0,0-.94.19,2.16,2.16,0,0,0-.73.52,2.31,2.31,0,0,0-.47.77A2.69,2.69,0,0,0,170.06,39.45Z"/><path class="cls-3" d="M180.37,44.22c-.12.28-.23.54-.35.76a2,2,0,0,1-.42.59A1.58,1.58,0,0,1,179,46a2.23,2.23,0,0,1-.83.13l-.5,0a1.56,1.56,0,0,1-.48-.14l.14-1a1.06,1.06,0,0,0,.35.09,2.58,2.58,0,0,0,.42,0,1,1,0,0,0,.79-.3,2.85,2.85,0,0,0,.43-.78l.45-1.23-2.72-6.6h1.28l2,5.14h0l2-5.14h1.19Z"/><path class="cls-3" d="M196,34.85a2.84,2.84,0,0,0-1.11-.9,3.25,3.25,0,0,0-1.37-.3A3.36,3.36,0,0,0,192,34a3.79,3.79,0,0,0-1.2.9,4.4,4.4,0,0,0-1.06,2.88,4.47,4.47,0,0,0,.28,1.61,4,4,0,0,0,.78,1.31,3.46,3.46,0,0,0,1.19.87,3.5,3.5,0,0,0,1.53.32,3.64,3.64,0,0,0,1.62-.35,3.71,3.71,0,0,0,1.25-1l.88.74a4.18,4.18,0,0,1-1.62,1.32,5.36,5.36,0,0,1-2.13.42,5.09,5.09,0,0,1-2-.4A4.91,4.91,0,0,1,190,41.5a5.06,5.06,0,0,1-1.07-1.65,5.87,5.87,0,0,1,0-4.13,5.2,5.2,0,0,1,1-1.65,5,5,0,0,1,3.63-1.51,5.34,5.34,0,0,1,1.94.36A3.63,3.63,0,0,1,197,34.11Z"/><path class="cls-3" d="M198.5,39.45a3.49,3.49,0,0,1,.26-1.4,3.42,3.42,0,0,1,.73-1.09,3.18,3.18,0,0,1,1.11-.7A3.71,3.71,0,0,1,202,36a3.79,3.79,0,0,1,1.4.26,3.23,3.23,0,0,1,1.1.7,3.42,3.42,0,0,1,.73,1.09,3.76,3.76,0,0,1,0,2.8,3.26,3.26,0,0,1-1.83,1.79,3.78,3.78,0,0,1-1.4.25,3.71,3.71,0,0,1-1.4-.25,3.2,3.2,0,0,1-1.11-.71,3.27,3.27,0,0,1-.73-1.08A3.53,3.53,0,0,1,198.5,39.45Zm1.17,0a3,3,0,0,0,.16,1,2.42,2.42,0,0,0,.47.77,2.13,2.13,0,0,0,.74.51,2.5,2.5,0,0,0,1.91,0,2.13,2.13,0,0,0,.74-.51,2.25,2.25,0,0,0,.47-.77,2.76,2.76,0,0,0,.16-1,2.69,2.69,0,0,0-.16-1,2.16,2.16,0,0,0-.47-.77,2.3,2.3,0,0,0-.74-.52,2.5,2.5,0,0,0-1.91,0,2.22,2.22,0,0,0-1.21,1.29A2.93,2.93,0,0,0,199.67,39.45Z"/><path class="cls-3" d="M208.24,41.13a.84.84,0,0,1,.84.84.79.79,0,0,1-.26.59.8.8,0,0,1-.58.25.87.87,0,0,1-.84-.84.83.83,0,0,1,.24-.6A.85.85,0,0,1,208.24,41.13Z"/><path class="cls-3" d="M212.13,44.66h-1.08l1-3.37h1.27Z"/><path class="cls-3" d="M215.59,32.81h1.18v8.82h4.53v1.09h-5.71Z"/><path class="cls-3" d="M226.12,37.1h-1.93v3.27c0,.22,0,.41,0,.6a1.3,1.3,0,0,0,.11.47.72.72,0,0,0,.3.32,1.06,1.06,0,0,0,.56.12,2.91,2.91,0,0,0,.49-.05,2.64,2.64,0,0,0,.47-.17l0,1a2,2,0,0,1-.62.18,3.83,3.83,0,0,1-.65.06,2.43,2.43,0,0,1-.94-.15,1.31,1.31,0,0,1-.54-.44,1.43,1.43,0,0,1-.26-.69,5.21,5.21,0,0,1-.07-.92V37.1h-1.42v-.93h1.42V34.31h1.1v1.86h1.93Z"/><path class="cls-3" d="M233.05,41.56h0a2.6,2.6,0,0,1-1,.95,3.12,3.12,0,0,1-1.55.38,3.27,3.27,0,0,1-1.29-.26,3,3,0,0,1-1-.72,3.16,3.16,0,0,1-.69-1.09,3.63,3.63,0,0,1-.26-1.37,3.59,3.59,0,0,1,.26-1.37,3.23,3.23,0,0,1,.7-1.1,3.3,3.3,0,0,1,1.08-.72,3.73,3.73,0,0,1,1.41-.26,2.9,2.9,0,0,1,1.31.3,3.26,3.26,0,0,1,1,.82h0v-5h1.09V42.72h-1.09Zm0-2.11a2.93,2.93,0,0,0-.16-1,2.22,2.22,0,0,0-1.21-1.29,2.25,2.25,0,0,0-1-.19,2.32,2.32,0,0,0-1,.19,2.26,2.26,0,0,0-.73.52,2.16,2.16,0,0,0-.47.77,2.69,2.69,0,0,0-.16,1,2.76,2.76,0,0,0,.16,1,2.25,2.25,0,0,0,.47.77,2.09,2.09,0,0,0,.73.51,2.32,2.32,0,0,0,1,.19,2.25,2.25,0,0,0,1-.19,2.13,2.13,0,0,0,.74-.51,2.42,2.42,0,0,0,.47-.77A3,3,0,0,0,233.05,39.45Z"/><path class="cls-3" d="M237.21,41.13a.81.81,0,0,1,.59.24.84.84,0,0,1,.25.6.79.79,0,0,1-.26.59.81.81,0,0,1-1.17,0,.78.78,0,0,1-.25-.59.83.83,0,0,1,.24-.6A.81.81,0,0,1,237.21,41.13Z"/></svg>