<svg id="final" xmlns="http://www.w3.org/2000/svg" viewBox="0 0 48 48"><defs><style>.cls-1{fill:#21219c;}.cls-2{fill:#fff;}</style></defs><path class="cls-1" d="M22.63,11.92c2.14,4.42-.47,20.37-.47,20.37C28,27.89,33.54,12.92,34.6,9.92L27,2.33a4.54,4.54,0,0,0-6.42,0L16,6.88A9,9,0,0,1,22.63,11.92Z"/><path class="cls-1" d="M27.61,28.58c-1.9,2.52-8.45,9.31-10.74,8.29-2-.91-1.74-4.74-1.74-4.74s-.39-9-.47-11.92-.63-5-2.37-6.24A8.62,8.62,0,0,0,10,12.89l-7.9,7.9a4.54,4.54,0,0,0,0,6.42L17.31,42.4A26.69,26.69,0,0,0,27.61,28.58Z"/><path class="cls-1" d="M45.47,20.79l-3.95-3.95a57.13,57.13,0,0,1-9.1,14.58c-5.35,6.51-9.94,10.29-13.61,12.47l1.78,1.78a4.54,4.54,0,0,0,6.42,0L45.47,27.21A4.54,4.54,0,0,0,45.47,20.79Z"/><path class="cls-1" d="M8.9,46.66s3.58,1,9.91-2.77l-1.5-1.49A32.4,32.4,0,0,1,8.9,46.66Z"/><path class="cls-2" d="M32.42,31.42a57.13,57.13,0,0,0,9.1-14.58L34.6,9.92c-1.06,3-6.62,18-12.44,22.37,0,0,2.61-15.95.47-20.37a9,9,0,0,0-6.6-5l-6,6A8.62,8.62,0,0,1,12.29,14c1.74,1.27,2.29,3.32,2.37,6.24s.47,11.92.47,11.92-.29,3.83,1.74,4.74c2.29,1,8.84-5.77,10.74-8.29A26.69,26.69,0,0,1,17.31,42.4l1.5,1.49C22.48,41.71,27.07,37.93,32.42,31.42Z"/></svg>